<svg xmlns="http://www.w3.org/2000/svg" version="1.1" xmlns:xlink="http://www.w3.org/1999/xlink" width="1000" height="1000"><svg id="SvgjsSvg1005" data-name="Layer 1" xmlns="http://www.w3.org/2000/svg" viewBox="0 0 1000 1000">
  <defs>
    <style>
      .cls-1 {
        fill: #fff;
      }

      .cls-2 {
        fill: #1f1f1f;
      }
    </style>
  </defs>
  <circle class="cls-1" cx="500" cy="500" r="457.53"></circle>
  <path class="cls-2" d="M617.37,146.95s64.11,29.43,91.72,46.92c5.13,3.25,9.56,5.74,10.18,12.52l-55.9,149.82c5.16,1.68,31.94,10.15,33.3,12.84v6.94s-393.67-.57-393.67-.57v-6.37c5.58-4.03,33.82-13.58,33.82-13.58l-56.08-149.22c.02-4.71,3.97-8.57,7.61-11.09l94.42-48.21h234.61ZM582.05,216.27h-163.96l17.32,98.65,127.79-.19,18.85-98.46ZM406.09,317.57l-20.02-99.96-62.62,30.72,30.78,79.82,51.86-10.58ZM676.69,248.28l-63.98-30.67-18.68,99.96,52.04,10.12,30.62-79.41ZM302.99,454.49v-85.43h393.69v85.43h-146.5v398.56h-100.05v-398.56h-147.15Z"></path>
</svg><style>@media (prefers-color-scheme: light) { :root { filter: none; } }
@media (prefers-color-scheme: dark) { :root { filter: none; } }
</style></svg>